<svg width="288" height="288" viewBox="0 0 288 288" fill="none" xmlns="http://www.w3.org/2000/svg">
<path d="M288 143.866C288 223.488 223.488 288 143.866 288C64.512 288 0 223.488 0 143.866C0 64.512 64.512 0 143.866 0C223.488 0 288 64.512 288 143.866Z" fill="#2D6CDF"/>
<path d="M92.5819 216C91.8397 216.001 91.1061 215.842 90.4313 215.533C89.7566 215.223 89.1568 214.772 88.6731 214.209C88.1894 213.646 87.8332 212.985 87.6291 212.272C87.4249 211.558 87.3776 210.809 87.4904 210.075L108.062 76.3611C108.302 75.0433 109.046 73.871 110.137 73.0937C111.228 72.3164 112.58 71.9955 113.904 72.1992C115.228 72.4029 116.42 73.1151 117.227 74.1844C118.034 75.2536 118.391 76.5955 118.224 77.9246L97.6527 211.639C97.4663 212.851 96.8529 213.957 95.923 214.756C94.9932 215.556 93.8083 215.997 92.5819 216ZM195.418 216C194.192 215.997 193.007 215.556 192.077 214.756C191.147 213.957 190.534 212.851 190.348 211.639L169.776 77.9246C169.609 76.5955 169.967 75.2536 170.774 74.1844C171.58 73.1151 172.773 72.4029 174.097 72.1992C175.421 71.9955 176.772 72.3164 177.863 73.0937C178.954 73.871 179.699 75.0433 179.938 76.3611L200.51 210.075C200.623 210.809 200.575 211.558 200.371 212.272C200.167 212.985 199.811 213.646 199.327 214.209C198.843 214.772 198.244 215.223 197.569 215.533C196.894 215.842 196.161 216.001 195.418 216ZM138.857 77.1429C138.857 75.7789 139.399 74.4708 140.364 73.5063C141.328 72.5418 142.636 72 144 72C145.364 72 146.672 72.5418 147.637 73.5063C148.601 74.4708 149.143 75.7789 149.143 77.1429V87.4286C149.143 88.7925 148.601 90.1007 147.637 91.0651C146.672 92.0296 145.364 92.5714 144 92.5714C142.636 92.5714 141.328 92.0296 140.364 91.0651C139.399 90.1007 138.857 88.7925 138.857 87.4286V77.1429ZM138.857 108C138.857 106.636 139.399 105.328 140.364 104.363C141.328 103.399 142.636 102.857 144 102.857C145.364 102.857 146.672 103.399 147.637 104.363C148.601 105.328 149.143 106.636 149.143 108V118.286C149.143 119.65 148.601 120.958 147.637 121.922C146.672 122.887 145.364 123.429 144 123.429C142.636 123.429 141.328 122.887 140.364 121.922C139.399 120.958 138.857 119.65 138.857 118.286V108ZM138.857 138.857C138.857 137.493 139.399 136.185 140.364 135.221C141.328 134.256 142.636 133.714 144 133.714C145.364 133.714 146.672 134.256 147.637 135.221C148.601 136.185 149.143 137.493 149.143 138.857V149.143C149.143 150.507 148.601 151.815 147.637 152.779C146.672 153.744 145.364 154.286 144 154.286C142.636 154.286 141.328 153.744 140.364 152.779C139.399 151.815 138.857 150.507 138.857 149.143V138.857ZM138.857 169.714C138.857 168.35 139.399 167.042 140.364 166.078C141.328 165.113 142.636 164.571 144 164.571C145.364 164.571 146.672 165.113 147.637 166.078C148.601 167.042 149.143 168.35 149.143 169.714V180C149.143 181.364 148.601 182.672 147.637 183.637C146.672 184.601 145.364 185.143 144 185.143C142.636 185.143 141.328 184.601 140.364 183.637C139.399 182.672 138.857 181.364 138.857 180V169.714ZM138.857 198C138.857 196.636 139.399 195.328 140.364 194.363C141.328 193.399 142.636 192.857 144 192.857C145.364 192.857 146.672 193.399 147.637 194.363C148.601 195.328 149.143 196.636 149.143 198V208.286C149.143 209.65 148.601 210.958 147.637 211.922C146.672 212.887 145.364 213.429 144 213.429C142.636 213.429 141.328 212.887 140.364 211.922C139.399 210.958 138.857 209.65 138.857 208.286V198Z" fill="white"/>
</svg>
