<svg id="SvgjsSvg1011" width="288" height="288" xmlns="http://www.w3.org/2000/svg" version="1.1" xmlns:xlink="http://www.w3.org/1999/xlink" xmlns:svgjs="http://svgjs.com/svgjs"><defs id="SvgjsDefs1012"></defs><g id="SvgjsG1013" transform="matrix(1,0,0,1,0,0)"><svg xmlns="http://www.w3.org/2000/svg" enable-background="new 0 0 156.15 192.972" viewBox="0 0 156.15 192.972" width="288" height="288"><path d="M43.243,51.527l-25.52-16.748c-2.308-1.515-5.409-0.872-6.925,1.437c-1.513,2.31-0.872,5.41,1.438,6.925l25.06,16.447
		C38.938,56.466,40.951,53.761,43.243,51.527z" fill="#2d6cdf" class="color000 svgShape"></path><ellipse cx="74.265" cy="22.498" rx="22.493" ry="22.495" transform="rotate(-76.891 74.269 22.499)" fill="#2d6cdf" class="color000 svgShape"></ellipse><path d="M50.057 69.897c-2.465-4.935-.458-10.953 4.471-13.415 1.405-.703 2.906-1.061 4.469-1.061 3.816 0 7.244 2.121 8.949 5.534l5.347 10.692c3.672-9.328 1.478-20.953-6.422-24.12-8.166-3.275-21.059-.374-28.048 13.442-9.498 19.055-12.742 31.862-13.218 54.222.307 5.588 1.756 9.634 3.893 12.587l30.578-37.847L50.057 69.897zM63.71 101.344l-26.213 32.446c2.854 1.131 5.912 1.7 8.808 2.062 2.396.3 4.448.489 6.195.354.89-.027 1.789-.144 2.688-.37l35.986-9.089 20.148 43.586c2.111 4.568 6.633 7.259 11.356 7.259 1.756 0 3.537-.371 5.234-1.156 6.268-2.896 9-10.324 6.103-16.59l-24.5-53.001c-2.52-5.446-8.59-8.345-14.406-6.877l-32.93 8.316C62.617 105.963 63.137 103.644 63.71 101.344zM105.6 61.399l3.849-8.692c1.258-2.841-.025-6.163-2.867-7.421-2.84-1.258-6.162.026-7.42 2.867l-5.123 11.572c1.414-.741 2.995-1.135 4.631-1.135C101.286 58.591 103.731 59.591 105.6 61.399zM92.243 91.569l2.205-4.981-8.486 8.212C88.502 95.326 91.153 94.036 92.243 91.569zM103.31 78.014l49.297 21.823 3.543-8-47.707-21.121c-.412 1.916-1.379 3.667-2.82 5.061L103.31 78.014zM143.835 163.748l-13.703 22.097c-1.357 2.191-.684 5.067 1.506 6.426 2.191 1.358 5.068.684 6.426-1.507l13.703-22.097c1.357-2.19.684-5.066-1.508-6.425C148.07 160.883 145.193 161.558 143.835 163.748z" fill="#2d6cdf" class="color000 svgShape"></path><path d="M19.834 154.84h59.832c3.865 0 7.001-3.134 7.001-6.999 0-3.867-3.136-6.999-7.001-6.999l-47.936-.002 3.628-4.404c.004-.004.006-.01.009-.014 1.745-2.131 1.438-5.271-.688-7.024-2.13-1.755-5.279-1.451-7.037.676 0 .001-.001.001-.002.002l-2.849 3.458L13.925 60.149c-.566-3.824-4.127-6.466-7.95-5.898-3.824.566-6.464 4.125-5.898 7.948l12.832 86.667C13.415 152.293 16.368 154.84 19.834 154.84zM66.156 61.847c-1.975-3.954-6.781-5.556-10.732-3.578-3.951 1.976-5.553 6.779-3.577 10.732l14 28.001c1.134 2.271 3.306 3.88 5.809 4.307.444.076.891.113 1.336.113 2.059 0 4.071-.797 5.572-2.249l25.668-24.834c3.176-3.071 3.258-8.137.188-11.313-3.074-3.175-8.137-3.258-11.313-.184L75.28 80.089 66.156 61.847z" fill="#2d6cdf" class="color000 svgShape"></path></svg></g></svg>