<svg xmlns="http://www.w3.org/2000/svg" viewBox="0 0 48 48"><path fill="#665661" d="M45.89,29.06,39.86,42.19l-.59,1.29c-2.4.22-4.35,3.77-7.52,3.77a4.271,4.271,0,0,1-1.72-.36c-.12-.05-.24-.1-.36-.16a3.168,3.168,0,0,1-.41-.21q-.33-.2-.66-.42c-.42-.28-.83-.6-1.23-.92-.16-.12-.32-.24-.47-.36-.29-.22-.58-.44-.87-.62-.07-.05-.14-.09-.22-.14a3.751,3.751,0,0,0-.44-.24,3.956,3.956,0,0,0-.62-.24,2.447,2.447,0,0,0-.37-.08,2.422,2.422,0,0,0-.76,0,2.447,2.447,0,0,0-.37.08,3.956,3.956,0,0,0-.62.24c-.14.07-.29.15-.44.24-.08.05-.15.09-.22.14-.29.18-.58.4-.87.62-.15.12-.31.24-.47.36-.4.32-.81.64-1.23.92q-.33.225-.66.42a3.168,3.168,0,0,1-.41.21c-.12.06-.24.11-.36.16a4.271,4.271,0,0,1-1.72.36c-3.06,0-4.98-3.31-7.27-3.74H8.97l-.63-1.33L2.12,29.06,23.25,17.6l.75-.41.75.41Z"/><path fill="#e4a95e" d="M24,43.47c2.51,0,4.48,3.78,7.75,3.78H16.25C19.52,47.25,21.49,43.47,24,43.47Z"/><path fill="#53bbf3" d="M16.25 47.25H.75c3.27 0 5.24-3.78 7.75-3.78a2.487 2.487 0 0 1 .47.04h.01C11.27 43.94 13.19 47.25 16.25 47.25zM47.25 47.25H31.75c3.17 0 5.12-3.55 7.52-3.77a1.7 1.7 0 0 1 .23-.01C42.01 43.47 43.98 47.25 47.25 47.25zM31.75 47.25H16.25c2.94 0 4.83-3.06 7-3.67a2.612 2.612 0 0 1 1.5 0C26.92 44.19 28.81 47.25 31.75 47.25z"/><polygon fill="#a9e3f4" points="38.64 14.03 38.64 25.13 24.75 17.6 24 17.19 23.25 17.6 9.37 25.13 9.37 14.03 19.16 10.47 21.37 9.66 24 8.71 26.63 9.67 28.84 10.47 38.64 14.03"/><path fill="#7cc9f2" d="M25.37,16.46,24,15.71,9.37,23.65v1.48L23.25,17.6l.75-.41.75.41,13.89,7.53V23.65Z"/><polygon fill="#ffd27c" points="26.63 .75 26.63 9.67 24 8.71 21.38 9.66 21.38 .75 26.63 .75"/><path fill="#ffb963" d="M24,7.33l-2.62.95V9.66L24,8.71l2.63.96V8.29Z"/><path fill="#776471" d="M24.75,23.65V43.58a2.612,2.612,0,0,0-1.5,0V23.65a.75.75,0,0,1,1.5,0Z"/><path fill="#5b4d57" d="M39.5,42.17a2.614,2.614,0,0,0-.35.02,7.527,7.527,0,0,0-3.8,1.96c-1.18.92-2.3,1.8-3.6,1.8s-2.41-.87-3.6-1.8a9.265,9.265,0,0,0-3.05-1.82,3.861,3.861,0,0,0-2.2,0,9.265,9.265,0,0,0-3.05,1.82c-1.19.93-2.31,1.8-3.6,1.8s-2.42-.88-3.6-1.8a8.315,8.315,0,0,0-3.43-1.92l-.14-.02a3.77,3.77,0,0,0-.58-.04.86.86,0,0,0-.16.01l.63,1.33h.01c2.29.43,4.21,3.74,7.27,3.74,2.94,0,4.83-3.06,7-3.67a2.612,2.612,0,0,1,1.5,0c2.17.61,4.06,3.67,7,3.67,3.17,0,5.12-3.55,7.52-3.77l.59-1.29C39.74,42.18,39.62,42.17,39.5,42.17Z"/><path fill="#776471" d="M24.75 17.6v3.03a.75.75 0 0 1-1.5 0V17.6l.75-.41zM12.618 17.294a.75.75 0 0 1-.256-1.454l2.054-.747a.75.75 0 0 1 .512 1.409l-2.053.747A.749.749 0 0 1 12.618 17.294zM16.561 15.686a.75.75 0 0 1-.256-1.455l2.053-.747a.75.75 0 0 1 .513 1.41l-2.054.747A.763.763 0 0 1 16.561 15.686zM35.311 17.294a.749.749 0 0 1-.257-.045L33 16.5a.75.75 0 1 1 .513-1.409l2.054.747a.75.75 0 0 1-.256 1.454zM31.368 15.686a.745.745 0 0 1-.257-.045l-2.053-.747a.75.75 0 0 1 .513-1.41l2.053.747a.75.75 0 0 1-.256 1.455z"/></svg>