<svg width="288" height="288" viewBox="0 0 288 288" fill="none" xmlns="http://www.w3.org/2000/svg">
<path d="M144 288C223.529 288 288 223.529 288 144C288 64.471 223.529 0 144 0C64.471 0 0 64.471 0 144C0 223.529 64.471 288 144 288Z" fill="#2D6CDF"/>
<path d="M180.675 96.435C180.9 97.335 181.755 97.965 182.7 97.965C182.88 97.965 183.06 97.92 183.24 97.875C184.365 97.56 184.995 96.435 184.725 95.31L182.565 87.3L187.425 85.815C188.325 85.545 188.91 84.735 188.91 83.835V79.56L193.23 81.945C193.545 82.125 193.905 82.215 194.22 82.215C194.715 82.215 195.21 82.035 195.57 81.72L199.755 78.075L199.17 84.285C199.08 85.41 199.89 86.445 201.06 86.535L203.985 86.805L198.45 90.99C198 91.35 197.685 91.845 197.64 92.43C197.595 93.015 197.73 93.555 198.09 94.005L201.105 97.605L192.555 99.765C191.43 100.035 190.755 101.16 191.025 102.285C191.25 103.23 192.105 103.86 193.05 103.86C193.23 103.86 193.365 103.86 193.545 103.815L205.335 100.89C206.055 100.71 206.595 100.215 206.82 99.495C207.045 98.82 206.91 98.055 206.46 97.515L202.725 93.06L210.825 86.94C211.5 86.445 211.815 85.545 211.59 84.69C211.365 83.88 210.645 83.25 209.79 83.205L203.535 82.62L204.39 73.305C204.48 72.45 204.03 71.64 203.265 71.235C202.95 71.1 202.635 71.01 202.32 71.01C201.825 71.01 201.33 71.19 200.97 71.505L193.995 77.58L187.83 74.205C187.515 74.025 187.155 73.935 186.84 73.935C186.48 73.935 186.12 74.025 185.76 74.205C185.13 74.565 184.725 75.285 184.725 76.005V82.26L179.415 83.88C178.335 84.195 177.705 85.32 178.02 86.445L180.675 96.435Z" fill="white"/>
<path d="M237.51 141.93C235.845 141.435 233.73 141.165 231.57 141.66C226.62 142.83 227.295 149.985 227.295 149.985L225.135 150.84L209.25 113.085C208.395 111.015 206.595 109.71 204.615 109.71H122.445C120.465 109.71 118.665 111.015 117.81 113.085L101.925 150.84L99.765 149.985C99.765 149.985 100.44 142.83 95.49 141.66C93.285 141.165 91.17 141.435 89.505 141.93C87.39 142.605 86.085 144.9 86.355 147.465C86.445 149.04 87.03 150.21 87.885 150.84C88.11 151.02 88.38 151.155 88.605 151.245L99.495 155.475C99.27 155.745 99.09 156.06 98.865 156.285L95.76 159.75C93.69 162.045 92.52 165.285 92.52 168.66V196.83C92.52 201.195 95.535 204.75 99.27 204.75H227.79C231.525 204.75 234.54 201.195 234.54 196.83V168.66C234.54 165.285 233.37 162.09 231.3 159.75L228.195 156.285C227.97 156.015 227.79 155.745 227.565 155.475L238.41 151.245C238.68 151.155 238.95 151.02 239.175 150.84C240.075 150.165 240.615 149.04 240.705 147.465C240.93 144.9 239.625 142.605 237.51 141.93ZM124.47 118.575H202.545L216.045 150.3C181.035 153.945 145.98 153.945 110.97 150.3L124.47 118.575ZM124.155 189.54C124.155 189.54 104.13 189.09 102.06 186.3C98.91 182.07 100.71 170.415 100.71 170.415C100.71 170.415 127.89 176.31 124.155 189.54ZM191.475 188.505H135.585L129.51 173.97L134.19 165.15H192.915L197.595 173.97L191.475 188.505ZM224.955 186.3C222.885 189.09 202.86 189.54 202.86 189.54C199.125 176.355 226.305 170.46 226.305 170.46C226.305 170.46 228.105 182.07 224.955 186.3Z" fill="white"/>
<path d="M208.08 207.54V213.525C208.08 215.46 209.385 216.99 211.005 216.99H226.575C228.195 216.99 229.545 215.46 229.545 213.525V207.315C228.96 207.45 228.375 207.54 227.79 207.54H208.08V207.54ZM97.5148 207.36V213.57C97.5148 215.505 98.8198 217.035 100.44 217.035H116.01C117.63 217.035 118.98 215.505 118.98 213.57V207.585H99.3148C98.6848 207.54 98.0998 207.45 97.5148 207.36ZM186.48 169.02C185.67 169.02 184.995 169.74 184.995 170.685V183.06C184.995 183.96 185.67 184.725 186.48 184.725C187.29 184.725 187.965 184.005 187.965 183.06V170.685C187.92 169.74 187.29 169.02 186.48 169.02ZM178.83 169.02C178.02 169.02 177.345 169.74 177.345 170.685V183.06C177.345 183.96 178.02 184.725 178.83 184.725C179.64 184.725 180.315 184.005 180.315 183.06V170.685C180.27 169.74 179.64 169.02 178.83 169.02ZM171.18 169.02C170.37 169.02 169.695 169.74 169.695 170.685V183.06C169.695 183.96 170.37 184.725 171.18 184.725C171.99 184.725 172.665 184.005 172.665 183.06V170.685C172.665 169.74 171.99 169.02 171.18 169.02ZM163.53 169.02C162.72 169.02 162.045 169.74 162.045 170.685V183.06C162.045 183.96 162.72 184.725 163.53 184.725C164.34 184.725 165.015 184.005 165.015 183.06V170.685C165.015 169.74 164.34 169.02 163.53 169.02ZM155.88 169.02C155.07 169.02 154.395 169.74 154.395 170.685V183.06C154.395 183.96 155.07 184.725 155.88 184.725C156.69 184.725 157.365 184.005 157.365 183.06V170.685C157.365 169.74 156.69 169.02 155.88 169.02ZM148.23 169.02C147.42 169.02 146.745 169.74 146.745 170.685V183.06C146.745 183.96 147.42 184.725 148.23 184.725C149.04 184.725 149.715 184.005 149.715 183.06V170.685C149.715 169.74 149.04 169.02 148.23 169.02ZM140.58 169.02C139.77 169.02 139.095 169.74 139.095 170.685V183.06C139.095 183.96 139.77 184.725 140.58 184.725C141.39 184.725 142.065 184.005 142.065 183.06V170.685C142.065 169.74 141.39 169.02 140.58 169.02ZM94.4998 156.735L87.5698 154.035C87.1198 153.9 86.5798 153.585 86.0848 153.18C84.5098 152.01 83.5198 149.985 83.3848 147.555C82.9798 143.775 85.1848 140.085 88.6498 139.05C90.1798 138.6 91.7098 138.375 93.1048 138.375C94.1398 138.375 95.1748 138.465 96.1648 138.69C99.0898 139.365 100.8 141.3 101.79 143.505L108 128.745C95.9398 128.385 83.9248 127.575 71.9098 126.315L85.4098 94.59H163.485L168.705 106.83H177.57L170.145 89.19C169.29 87.12 167.445 85.77 165.51 85.77H83.4298C81.4498 85.77 79.6498 87.075 78.7948 89.19L62.9098 126.945L60.7498 126C60.7498 126 61.4248 118.845 56.4748 117.675C54.3148 117.18 52.1998 117.45 50.5348 117.945C48.4198 118.62 47.1148 120.915 47.3848 123.48C47.4748 125.055 48.0598 126.225 48.9148 126.9C49.1398 127.08 49.4098 127.215 49.6348 127.305L60.5248 131.535C60.2998 131.805 60.1198 132.12 59.8948 132.39L56.7448 135.855C54.6748 138.195 53.5048 141.39 53.5048 144.765V172.935C53.5048 177.3 56.5198 180.855 60.2548 180.855H89.5498V168.75C89.5498 164.655 90.9898 160.695 93.5548 157.86L94.4998 156.735ZM85.1398 165.51C85.1398 165.51 65.1148 165.06 63.0448 162.27C59.8948 158.085 61.6948 146.43 61.6948 146.43C61.6948 146.43 88.8748 152.325 85.1398 165.51ZM58.4998 183.33V189.54C58.4998 191.475 59.8048 193.005 61.4248 193.005H76.9948C78.6148 193.005 79.9648 191.475 79.9648 189.54V183.555H60.2998C59.6248 183.555 59.0398 183.465 58.4998 183.33Z" fill="white"/>
</svg>
