<svg width="288" height="288" viewBox="0 0 288 288" fill="none" xmlns="http://www.w3.org/2000/svg">
<path d="M213.345 74.655L160.02 64.35L41.5347 182.835L105.165 246.465L223.65 127.98L213.345 74.655ZM191.07 122.355C188.554 124.877 185.347 126.595 181.854 127.293C178.361 127.991 174.74 127.638 171.448 126.276C168.157 124.915 165.343 122.608 163.363 119.647C161.383 116.686 160.326 113.204 160.326 109.642C160.326 106.081 161.383 102.599 163.363 99.6377C165.343 96.6767 168.157 94.3696 171.448 93.0085C174.74 91.6474 178.361 91.2935 181.854 91.9915C185.347 92.6896 188.554 94.4083 191.07 96.93C194.436 100.304 196.326 104.876 196.326 109.642C196.326 114.409 194.436 118.981 191.07 122.355V122.355Z" fill="white"/>
<path d="M242.01 45.99C238.348 42.484 233.921 39.8781 229.079 38.3785C224.237 36.879 219.112 36.5268 214.11 37.35C202.844 38.9321 192.426 44.2202 184.5 52.38C181.39 55.577 178.685 59.1437 176.445 63L160.83 59.985C160.107 59.8402 159.359 59.8753 158.653 60.0872C157.947 60.299 157.304 60.6812 156.78 61.2L38.3398 179.64C37.5017 180.483 37.0312 181.624 37.0312 182.812C37.0312 184.001 37.5017 185.142 38.3398 185.985L101.97 249.66C102.813 250.498 103.953 250.969 105.142 250.969C106.331 250.969 107.472 250.498 108.315 249.66L226.845 131.175C227.372 130.655 227.762 130.014 227.982 129.308C228.202 128.601 228.244 127.852 228.105 127.125L225 111.555C228.855 109.313 232.422 106.608 235.62 103.5C243.738 95.6342 249.023 85.3013 250.65 74.115C251.51 69.0779 251.176 63.9094 249.675 59.0248C248.175 54.1402 245.549 49.6757 242.01 45.99V45.99ZM105.165 240.12L47.8798 182.835L161.505 69.21L209.52 78.48L214.92 106.56C210.482 108.519 205.685 109.53 200.835 109.53C200.816 103.962 198.733 98.5996 194.99 94.4783C191.246 90.3571 186.108 87.7701 180.568 87.2177C175.028 86.6652 169.479 88.1864 164.996 91.4872C160.512 94.788 157.411 99.6339 156.293 105.088C155.175 110.542 156.119 116.217 158.942 121.016C161.766 125.815 166.268 129.396 171.578 131.068C176.889 132.74 182.631 132.384 187.694 130.068C192.757 127.752 196.782 123.641 198.99 118.53H201.195C206.477 118.481 211.707 117.475 216.63 115.56L218.7 126.405L105.165 240.12ZM171.315 98.19C172.74 102.515 175.16 106.445 178.38 109.665C181.6 112.885 185.53 115.305 189.855 116.73C188.866 118.372 187.539 119.785 185.962 120.874C184.384 121.964 182.593 122.705 180.707 123.048C178.821 123.391 176.884 123.329 175.024 122.865C173.164 122.402 171.424 121.547 169.92 120.359C168.416 119.17 167.182 117.675 166.301 115.973C165.42 114.27 164.911 112.4 164.809 110.486C164.707 108.572 165.013 106.658 165.708 104.871C166.403 103.085 167.471 101.467 168.84 100.125C169.587 99.3858 170.417 98.7364 171.315 98.19V98.19ZM180.315 96.345C183.233 96.748 185.933 98.1133 187.987 100.225C190.041 102.336 191.332 105.072 191.655 108C189.05 107.011 186.684 105.481 184.714 103.511C182.744 101.54 181.214 99.1748 180.225 96.57L180.315 96.345ZM241.785 72.765C240.412 81.9754 236.029 90.4724 229.32 96.93C227.457 98.7921 225.44 100.493 223.29 102.015L217.8 73.8C217.628 72.9209 217.198 72.113 216.565 71.4797C215.932 70.8464 215.124 70.4165 214.245 70.245L185.985 64.8C187.506 62.6355 189.207 60.6033 191.07 58.725C197.529 52.0183 206.025 47.6358 215.235 46.26C218.871 45.6261 222.605 45.8449 226.142 46.899C229.679 47.9532 232.924 49.814 235.62 52.335C238.144 55.0379 240.007 58.2899 241.061 61.8351C242.116 65.3803 242.332 69.1218 241.695 72.765H241.785Z" fill="#2D6CDF"/>
</svg>
