<svg id="SvgjsSvg1001" width="288" height="288" xmlns="http://www.w3.org/2000/svg" version="1.1" xmlns:xlink="http://www.w3.org/1999/xlink" xmlns:svgjs="http://svgjs.com/svgjs"><defs id="SvgjsDefs1002"></defs><g id="SvgjsG1008" transform="matrix(1,0,0,1,0,0)"><svg xmlns="http://www.w3.org/2000/svg" enable-background="new 0 0 241.536 292.43" viewBox="0 0 241.536 292.43" width="288" height="288"><path d="M0 263.49h9.29v19.656c0 5.131 4.149 9.284 9.295 9.284H37.15c5.14 0 9.298-4.152 9.298-9.284V263.49h148.641v19.656c0 5.131 4.152 9.284 9.288 9.284h18.574c5.14 0 9.297-4.152 9.297-9.284V263.49h9.289v-26.797H0V263.49zM117.774 173.094c-37.177 0-97.469 8.782-117.774 11.911v46.532h241.536v-45.585C232.715 184.534 160.188 173.094 117.774 173.094zM35.586 221.193c-8.653 0-15.657-7.008-15.657-15.654 0-8.648 7.004-15.658 15.657-15.658 8.64 0 15.653 7.01 15.653 15.658C51.239 214.185 44.226 221.193 35.586 221.193zM205.95 221.193c-8.64 0-15.649-7.008-15.649-15.654 0-8.648 7.01-15.658 15.649-15.658 8.653 0 15.655 7.01 15.655 15.658C221.606 214.185 214.604 221.193 205.95 221.193z" fill="#ff8066" class="color000 svgShape"></path><path d="M117.774 169.094c20.014 0 46.635 2.521 70.193 5.348l18.874-79.378-2.073-21.565H112.62c-.213 10.168-6.893 18.992-16.563 21.978.064.646.097 1.299.097 1.956 0 1.734-.232 3.429-.666 5.051 4.257 2.887 6.849 7.717 6.849 12.905 0 4.126-1.621 7.871-4.245 10.664 4.643 2.705 7.778 7.725 7.778 13.475 0 .03-.004.059-.005.089 1.501-.619 3.143-.966 4.865-.966 7.057 0 12.8 5.74 12.8 12.798 0 7.058-5.743 12.8-12.8 12.8-6.519 0-11.907-4.903-12.692-11.214-2.29 1.322-4.937 2.091-7.766 2.091-8.601 0-15.598-6.997-15.598-15.598 0-4.125 1.621-7.871 4.246-10.663-4.357-2.538-7.388-7.113-7.742-12.422-8.327-2.307-14.46-9.955-14.46-19.009 0-7.224 3.966-13.716 9.991-17.15-.187-.572-.349-1.155-.491-1.743-.517.034-1.035.051-1.557.051-5.344 0-10.464-1.858-14.565-5.092H36.768l-9.808 102h-4.018l3.793-39.449L10.49 179.388C36.722 175.557 85.718 169.094 117.774 169.094zM168.558 148.757l-19.225 9.803-.479-.664 15.009-9.861-6.436-3.791 15.319-12.012 2.221 2.816-13.248 9.012L168.558 148.757zM156.437 113.974l-8.297 17.025 9.769.805-13.962 21.35-.883-.402 9.606-18.933-8.827-.11 8.66-21.318L156.437 113.974zM129.963 119.302l-.128 15.773 7.633-2.898-2.838 21.06-.803.011.428-17.677-6.677 3.083-1.144-19.132L129.963 119.302zM214.575 175.499l-6.748-70.179-16.531 69.526c16.158 1.981 30.609 4.058 40.114 5.489L214.796 136l3.798 39.499H214.575z" fill="#ff8066" class="color000 svgShape"></path><circle cx="90.271" cy="139.527" r="10.597" fill="#ff8066" class="color000 svgShape"></circle><circle cx="110.729" cy="151.449" r="7.8" fill="#ff8066" class="color000 svgShape"></circle><path d="M107.176,68.929c7.953-1.539,14.581-6.796,17.993-13.895c0.896,0.197,1.825,0.307,2.781,0.307
		c6.384,0,11.676-4.623,12.743-10.703c0.129-0.732,0.208-1.482,0.208-2.25c0-7.152-5.799-12.951-12.951-12.951
		c-5.306,0-9.86,3.193-11.862,7.759c0.659-3.756,2.932-6.946,6.08-8.843c-4.637-5.838-11.793-9.587-19.829-9.587
		c-3.88,0-7.556,0.876-10.843,2.437c-2.975-6.098-9.217-10.31-16.458-10.31c-0.497,0-0.985,0.036-1.472,0.074
		c-9.432,0.752-16.852,8.627-16.852,18.25c0,9.624,7.421,17.497,16.852,18.25c-0.487,0.039-0.975,0.074-1.473,0.074
		c-6.727,0-12.591-3.635-15.777-9.038c-6.046,3.056-10.199,9.308-10.199,16.545c0,3.423,0.943,6.618,2.561,9.371
		c3.223,5.482,9.165,9.174,15.984,9.174c8.573,0,15.767-5.826,17.89-13.729c0.438,0.547,0.896,1.076,1.377,1.585
		c-1.496,6.715-6.628,12.041-13.226,13.832c0.346,2.824,1.325,5.448,2.795,7.732c-6.721,1.362-11.779,7.302-11.779,14.422
		c0,8.129,6.589,14.719,14.718,14.719c0.073,0,0.143-0.01,0.218-0.011c-0.33,1.024-0.513,2.114-0.513,3.248
		c0,5.852,4.745,10.597,10.597,10.597c5.853,0,10.598-4.745,10.598-10.597c0-3.979-2.197-7.443-5.442-9.255
		c-2.692,3.476-6.894,5.723-11.631,5.723c-0.247,0-0.488-0.025-0.732-0.037c6.643-1.422,11.624-7.321,11.624-14.387
		c0-2.11-0.452-4.113-1.252-5.927c1.275-0.055,2.514-0.237,3.71-0.537c8.054-2.021,14.026-9.287,14.026-17.967
		C107.639,71.601,107.47,70.242,107.176,68.929z" fill="#ff8066" class="color000 svgShape"></path><circle cx="98.513" cy="7.359" r="7.359" fill="#ff8066" class="color000 svgShape"></circle><circle cx="127.507" cy="10.45" r="10.45" fill="#ff8066" class="color000 svgShape"></circle></svg></g></svg>