<svg id="SvgjsSvg1045" width="288" height="288" xmlns="http://www.w3.org/2000/svg" version="1.1" xmlns:xlink="http://www.w3.org/1999/xlink" xmlns:svgjs="http://svgjs.com/svgjs"><defs id="SvgjsDefs1046"></defs><g id="SvgjsG1047" transform="matrix(1,0,0,1,0,0)"><svg xmlns="http://www.w3.org/2000/svg" viewBox="0 0 64 64" width="288" height="288"><g data-name="Layer 2" fill="#ff8066" class="color000 svgShape"><path fill="#f2b640" d="M47.41,16.59,35.56,14.3,9.23,40.63,23.37,54.77,49.7,28.44Zm-4.95,10.6a4,4,0,1,1,0-5.65A4,4,0,0,1,42.46,27.19Z" class="colorf2b640 svgShape"></path><path d="M53.78,10.22a7.26,7.26,0,0,0-6.2-1.92A11.38,11.38,0,0,0,41,11.64,12.11,12.11,0,0,0,39.21,14l-3.47-.67a1,1,0,0,0-.9.27L8.52,39.92a1,1,0,0,0,0,1.41L22.66,55.48a1,1,0,0,0,1.41,0L50.41,29.15a1,1,0,0,0,.28-.9L50,24.79A12.15,12.15,0,0,0,52.36,23a11.37,11.37,0,0,0,3.34-6.53A7.26,7.26,0,0,0,53.78,10.22ZM23.37,53.36,10.64,40.63,35.89,15.38l10.67,2.06,1.2,6.24a7.75,7.75,0,0,1-3.13.66,5,5,0,1,0-.41,2l.49,0a9.71,9.71,0,0,0,3.43-.66l.46,2.41ZM38.07,21.82a6.47,6.47,0,0,0,4.12,4.12,3,3,0,1,1-4.67-3.69A3,3,0,0,1,38.07,21.82Zm2-.41A2.94,2.94,0,0,1,42.59,24a4.38,4.38,0,0,1-2.54-2.54Zm13.66-5.24a9.37,9.37,0,0,1-2.77,5.37,10.37,10.37,0,0,1-1.34,1.13L48.4,16.4a1,1,0,0,0-.79-.79L41.33,14.4a10.45,10.45,0,0,1,1.13-1.35,9.38,9.38,0,0,1,5.37-2.77,5.3,5.3,0,0,1,4.53,1.35A5.31,5.31,0,0,1,53.71,16.17Z" fill="#ff8066" class="color000 svgShape"></path></g></svg></g></svg>