<svg id="SvgjsSvg1027" width="288" height="288" xmlns="http://www.w3.org/2000/svg" version="1.1" xmlns:xlink="http://www.w3.org/1999/xlink" xmlns:svgjs="http://svgjs.com/svgjs"><defs id="SvgjsDefs1028"></defs><g id="SvgjsG1029" transform="matrix(1,0,0,1,0,0)"><svg xmlns="http://www.w3.org/2000/svg" enable-background="new 0 0 64 64" viewBox="0 0 64 64" width="288" height="288"><circle cx="32" cy="32" r="32" fill="#ff8066" class="color233551 svgShape"></circle><path fill="#edb623" d="M40.15,21.43c0.05,0.2,0.24,0.34,0.45,0.34c0.04,0,0.08-0.01,0.12-0.02c0.25-0.07,0.39-0.32,0.33-0.57l-0.48-1.78l1.08-0.33c0.2-0.06,0.33-0.24,0.33-0.44v-0.95l0.96,0.53c0.07,0.04,0.15,0.06,0.22,0.06c0.11,0,0.22-0.04,0.3-0.11l0.93-0.81l-0.13,1.38c-0.02,0.25,0.16,0.48,0.42,0.5l0.65,0.06l-1.23,0.93c-0.1,0.08-0.17,0.19-0.18,0.32c-0.01,0.13,0.02,0.25,0.1,0.35l0.67,0.8l-1.9,0.48c-0.25,0.06-0.4,0.31-0.34,0.56c0.05,0.21,0.24,0.35,0.45,0.35c0.04,0,0.07,0,0.11-0.01l2.62-0.65c0.16-0.04,0.28-0.15,0.33-0.31c0.05-0.15,0.02-0.32-0.08-0.44l-0.83-0.99l1.8-1.36c0.15-0.11,0.22-0.31,0.17-0.5c-0.05-0.18-0.21-0.32-0.4-0.33l-1.39-0.13l0.19-2.07c0.02-0.19-0.08-0.37-0.25-0.46c-0.07-0.03-0.14-0.05-0.21-0.05c-0.11,0-0.22,0.04-0.3,0.11l-1.55,1.35l-1.37-0.75c-0.07-0.04-0.15-0.06-0.22-0.06c-0.08,0-0.16,0.02-0.24,0.06c-0.14,0.08-0.23,0.24-0.23,0.4v1.39l-1.18,0.36c-0.24,0.07-0.38,0.32-0.31,0.57L40.15,21.43z" class="coloredb623 svgShape"></path><path fill="#ffffff" d="M52.78,31.54c-0.37-0.11-0.84-0.17-1.32-0.06c-1.1,0.26-0.95,1.85-0.95,1.85l-0.48,0.19l-3.53-8.39c-0.19-0.46-0.59-0.75-1.03-0.75H27.21c-0.44,0-0.84,0.29-1.03,0.75l-3.53,8.39l-0.48-0.19c0,0,0.15-1.59-0.95-1.85c-0.49-0.11-0.96-0.05-1.33,0.06c-0.47,0.15-0.76,0.66-0.7,1.23c0.02,0.35,0.15,0.61,0.34,0.75c0.05,0.04,0.11,0.07,0.16,0.09l2.42,0.94c-0.05,0.06-0.09,0.13-0.14,0.18l-0.69,0.77c-0.46,0.51-0.72,1.23-0.72,1.98v6.26c0,0.97,0.67,1.76,1.5,1.76h28.56c0.83,0,1.5-0.79,1.5-1.76v-6.26c0-0.75-0.26-1.46-0.72-1.98l-0.69-0.77c-0.05-0.06-0.09-0.12-0.14-0.18l2.41-0.94c0.06-0.02,0.12-0.05,0.17-0.09c0.2-0.15,0.32-0.4,0.34-0.75C53.54,32.2,53.25,31.69,52.78,31.54z M27.66,26.35h17.35l3,7.05c-7.78,0.81-15.57,0.81-23.35,0L27.66,26.35z M27.59,42.12c0,0-4.45-0.1-4.91-0.72c-0.7-0.94-0.3-3.53-0.3-3.53S28.42,39.18,27.59,42.12z M42.55,41.89H30.13l-1.35-3.23l1.04-1.96h13.05l1.04,1.96L42.55,41.89z M49.99,41.4c-0.46,0.62-4.91,0.72-4.91,0.72c-0.83-2.93,5.21-4.24,5.21-4.24S50.69,40.46,49.99,41.4z" class="colorfff svgShape"></path><path fill="#edb623" d="M46.24 46.12v1.33c0 .43.29.77.65.77h3.46c.36 0 .66-.34.66-.77v-1.38c-.13.03-.26.05-.39.05H46.24zM21.67 46.08v1.38c0 .43.29.77.65.77h3.46c.36 0 .66-.34.66-.77v-1.33h-4.37C21.93 46.12 21.8 46.1 21.67 46.08zM41.44 37.56c-.18 0-.33.16-.33.37v2.75c0 .2.15.37.33.37.18 0 .33-.16.33-.37v-2.75C41.76 37.72 41.62 37.56 41.44 37.56zM39.74 37.56c-.18 0-.33.16-.33.37v2.75c0 .2.15.37.33.37.18 0 .33-.16.33-.37v-2.75C40.06 37.72 39.92 37.56 39.74 37.56zM38.04 37.56c-.18 0-.33.16-.33.37v2.75c0 .2.15.37.33.37s.33-.16.33-.37v-2.75C38.37 37.72 38.22 37.56 38.04 37.56zM36.34 37.56c-.18 0-.33.16-.33.37v2.75c0 .2.15.37.33.37.18 0 .33-.16.33-.37v-2.75C36.67 37.72 36.52 37.56 36.34 37.56zM34.64 37.56c-.18 0-.33.16-.33.37v2.75c0 .2.15.37.33.37.18 0 .33-.16.33-.37v-2.75C34.97 37.72 34.82 37.56 34.64 37.56zM32.94 37.56c-.18 0-.33.16-.33.37v2.75c0 .2.15.37.33.37.18 0 .33-.16.33-.37v-2.75C33.27 37.72 33.12 37.56 32.94 37.56zM31.24 37.56c-.18 0-.33.16-.33.37v2.75c0 .2.15.37.33.37s.33-.16.33-.37v-2.75C31.57 37.72 31.42 37.56 31.24 37.56zM21 34.83l-1.54-.6c-.1-.03-.22-.1-.33-.19-.35-.26-.57-.71-.6-1.25-.09-.84.4-1.66 1.17-1.89.34-.1.68-.15.99-.15.23 0 .46.02.68.07.65.15 1.03.58 1.25 1.07L24 28.61c-2.68-.08-5.35-.26-8.02-.54l3-7.05h17.35l1.16 2.72h1.97l-1.65-3.92c-.19-.46-.6-.76-1.03-.76H18.54c-.44 0-.84.29-1.03.76l-3.53 8.39L13.5 28c0 0 .15-1.59-.95-1.85-.48-.11-.95-.05-1.32.06-.47.15-.76.66-.7 1.23.02.35.15.61.34.76.05.04.11.07.16.09l2.42.94c-.05.06-.09.13-.14.19l-.7.77c-.46.52-.72 1.23-.72 1.98v6.26c0 .97.67 1.76 1.5 1.76h6.51v-2.69c0-.91.32-1.79.89-2.42L21 34.83zM18.92 36.78c0 0-4.45-.1-4.91-.72-.7-.93-.3-3.52-.3-3.52S19.75 33.85 18.92 36.78zM13 40.74v1.38c0 .43.29.77.65.77h3.46c.36 0 .66-.34.66-.77v-1.33h-4.37C13.25 40.79 13.12 40.77 13 40.74z" class="coloredb623 svgShape"></path></svg></g></svg>