<svg xmlns="http://www.w3.org/2000/svg" enable-background="new 0 0 140 140" viewBox="0 0 140 140"><path fill="#f0c854" d="M134,70c0,5.5-0.7,10.8-2,15.9c-7,27.3-31.5,47.5-60.8,48c-0.4,0-0.8,0-1.2,0c-35.3,0-64-28.7-64-64
			S34.7,6,70,6S134,34.7,134,70z"/><path d="M90.8,44.8c0,0-0.1-0.1-0.1-0.1l-0.3-0.3h0c-0.4-0.4-0.8-0.7-1.3-0.9c-0.2-0.1-0.3-0.2-0.5-0.2C88.4,43.1,88,43,87.7,43
			c-0.1,0-0.1,0-0.2,0c-0.1,0-0.3,0-0.4-0.1c-0.2,0-0.4,0-0.5,0H53.4c-2.2,0-4.2,1.3-5.1,3.3L38.2,67.8h-1.7c-3.1,0-5.6,2.5-5.6,5.6
			v10.3c-0.1,0-0.2,0-0.3,0c0,0-0.1,0-0.1,0c-0.2,0.1-0.4,0.2-0.4,0.4c0,0.1-0.1,0.1-0.1,0.2c0,0.1,0,0.2,0,0.2v3.7
			c0,0.1,0,0.1,0,0.2c0,0.1,0,0.2,0.1,0.2c0,0.1,0.1,0.1,0.1,0.2l0,0c0,0,0,0,0.1,0.1l3,3v3.3c0,0.2,0,0.5,0.1,0.7
			c0,0,0,0.1,0.1,0.1c0,0.1,0.1,0.2,0.2,0.3c0,0,0,0,0,0c0.1,0.1,0.2,0.3,0.3,0.3L71.2,134c29.3-0.5,53.8-20.8,60.8-48L90.8,44.8z" opacity=".3"/><path fill="#e45647" d="M101.8,67.8L91.7,46.2c-0.9-2-2.9-3.3-5.1-3.3H53.4c-2.2,0-4.2,1.3-5.1,3.3L38.2,67.8H101.8z"/><path fill="#f3f3f3" d="M44,64l7.7-16.4c0.3-0.7,1-1.1,1.7-1.1h33.2c0.7,0,1.4,0.4,1.7,1.1L96,64H44z"/><path fill="#cd4d40" d="M30.9,73.4v10.5h78.1V73.4c0-3.1-2.5-5.6-5.6-5.6H36.5C33.4,67.8,30.9,70.3,30.9,73.4z"/><path fill="#dfe1e2" d="M30,88.3v-3.7c0-0.5,0.4-0.9,0.9-0.9h78.1c0.5,0,0.9,0.4,0.9,0.9v3.7c0,0.5-0.4,0.9-0.9,0.9H30.9
				C30.4,89.2,30,88.8,30,88.3z"/><path fill="#263a46" d="M33.3 89.2v6.1c0 1 .8 1.9 1.9 1.9h7.3c1 0 1.9-.8 1.9-1.9v-6.1H33.3zM95.7 89.2v6.1c0 1 .8 1.9 1.9 1.9h7.3c1 0 1.9-.8 1.9-1.9v-6.1H95.7z"/><path fill="#f3f3f3" d="M49.8,77.6v1.2c0,0.5-0.5,1-1,1H37.7c-0.5,0-1-0.5-1-1v-6c0-0.5,0.5-1,1-1h6.4
					C47.3,71.8,49.8,74.4,49.8,77.6z"/><path fill="#f0c854" d="M42.7,72.8c-1.7,0-3,1.3-3,3c0,1.7,1.3,3,3,3c1.7,0,3-1.3,3-3C45.7,74.2,44.4,72.8,42.7,72.8z"/><path fill="#f3f3f3" d="M90.2,77.6v1.2c0,0.5,0.5,1,1,1h11.2c0.5,0,1-0.5,1-1v-6c0-0.5-0.5-1-1-1h-6.4
					C92.7,71.8,90.2,74.4,90.2,77.6z"/><path fill="#f0c854" d="M97.3,72.8c1.7,0,3,1.3,3,3c0,1.7-1.3,3-3,3c-1.7,0-3-1.3-3-3C94.3,74.2,95.6,72.8,97.3,72.8z"/><path fill="#f3f3f3" d="M80.3,73.8v4c0,0.5-0.4,1-1,1H60.7c-0.5,0-1-0.5-1-1v-4c0-0.5,0.5-1,1-1h18.7C79.9,72.8,80.3,73.3,80.3,73.8
				z"/><g opacity=".15"><polygon fill="#263a46" points="70.4 46.6 57.9 64 53 64 65.5 46.6"/><polygon fill="#263a46" points="83.1 46.6 70.6 64 65.7 64 78.2 46.6"/></g></svg>