<svg id="SvgjsSvg1001" width="288" height="288" xmlns="http://www.w3.org/2000/svg" version="1.1" xmlns:xlink="http://www.w3.org/1999/xlink" xmlns:svgjs="http://svgjs.com/svgjs"><defs id="SvgjsDefs1002"></defs><g id="SvgjsG1008" transform="matrix(1,0,0,1,0,0)"><svg xmlns="http://www.w3.org/2000/svg" enable-background="new 0 0 100 100" viewBox="0 0 100 100" width="288" height="288"><path d="M50,9C27.39,9,9,27.39,9,50c0,11.62,4.91,22.61,13.5,30.39C30.34,74.33,40.06,71,50,71s19.65,3.33,27.49,9.39	C85.78,72.88,91,62.04,91,50C91,27.39,72.61,9,50,9z M74.14,33.81l5.2-2.99c0.96-0.55,2.19-0.22,2.73,0.74
	c0.55,0.95,0.22,2.18-0.73,2.73l-5.2,2.99c-0.32,0.18-0.66,0.26-1,0.26c-0.69,0-1.36-0.36-1.73-1
	C72.86,35.58,73.19,34.36,74.14,33.81z M48,15c0-1.1,0.9-2,2-2s2,0.9,2,2v6c0,1.1-0.9,2-2,2s-2-0.9-2-2V15z M13,50c0-1.1,0.9-2,2-2
	h6c1.1,0,2,0.9,2,2c0,1.1-0.9,2-2,2h-6C13.9,52,13,51.1,13,50z M25.86,66.19l-5.2,2.99c-0.32,0.18-0.66,0.27-1,0.27
	c-0.69,0-1.37-0.36-1.74-1.01c-0.55-0.95-0.22-2.18,0.74-2.73l5.2-2.99c0.96-0.55,2.18-0.22,2.73,0.74
	C27.14,64.42,26.81,65.64,25.86,66.19z M26.59,36.54c-0.37,0.64-1.04,1-1.73,1c-0.34,0-0.68-0.08-1-0.26l-5.2-2.99
	c-0.96-0.55-1.29-1.78-0.74-2.73c0.56-0.96,1.78-1.29,2.74-0.74l5.2,2.99C26.81,34.36,27.14,35.58,26.59,36.54z M36.54,26.59
	c-0.31,0.18-0.66,0.27-0.99,0.27c-0.7,0-1.37-0.36-1.74-1l-2.99-5.2c-0.55-0.96-0.22-2.18,0.74-2.74c0.95-0.55,2.18-0.21,2.73,0.74
	l2.99,5.2C37.83,24.82,37.5,26.04,36.54,26.59z M65.41,37.41l-9.25,9.26C56.69,47.66,57,48.8,57,50c0,3.86-3.14,7-7,7s-7-3.14-7-7
	s3.14-7,7-7c1.2,0,2.34,0.31,3.33,0.84l9.26-9.25c0.78-0.79,2.04-0.79,2.82,0C66.2,35.37,66.2,36.63,65.41,37.41z M69.18,20.66
	l-2.99,5.2c-0.37,0.64-1.04,1-1.74,1c-0.33,0-0.68-0.09-0.99-0.27c-0.96-0.55-1.29-1.77-0.74-2.73l2.99-5.2
	c0.55-0.95,1.78-1.28,2.73-0.74C69.4,18.48,69.73,19.7,69.18,20.66z M82.07,68.44c-0.36,0.65-1.04,1.01-1.73,1.01
	c-0.34,0-0.68-0.09-1-0.27l-5.2-2.99c-0.96-0.55-1.28-1.77-0.73-2.73c0.55-0.96,1.77-1.29,2.73-0.74l5.2,2.99
	C82.3,66.26,82.62,67.49,82.07,68.44z M85,52h-6c-1.1,0-2-0.9-2-2c0-1.1,0.9-2,2-2h6c1.1,0,2,0.9,2,2C87,51.1,86.1,52,85,52z
	 M73.91,82.7c0.13,0.1,0.27,0.19,0.4,0.29C67.5,88.02,59.09,91,50,91c-8.77,0-17.31-2.83-24.32-8c0.16-0.12,0.33-0.24,0.49-0.36
	C33.09,77.7,41.45,75,50,75C58.58,75,66.97,77.72,73.91,82.7z M53,50c0,1.65-1.35,3-3,3s-3-1.35-3-3c0-1.65,1.35-3,3-3
	S53,48.35,53,50z" fill="#ff8066" class="color000 svgShape"></path></svg></g></svg>