<svg id="SvgjsSvg1001" width="288" height="288" xmlns="http://www.w3.org/2000/svg" version="1.1" xmlns:xlink="http://www.w3.org/1999/xlink" xmlns:svgjs="http://svgjs.com/svgjs"><defs id="SvgjsDefs1002"></defs><g id="SvgjsG1008" transform="matrix(1,0,0,1,0,0)"><svg xmlns="http://www.w3.org/2000/svg" width="288" height="288" viewBox="0 0 46 46"><path style="line-height:normal;text-indent:0;text-align:start;text-decoration-line:none;text-decoration-style:solid;text-decoration-color:#000;text-transform:none;block-progression:tb;isolation:auto;mix-blend-mode:normal" d="m 23,1006.3622 c 12.708472,0 23,10.2916 23,23 0,12.7085 -10.291528,23 -23,23 -12.708472,0 -23,-10.2915 -23,-23 0,-12.7084 10.291528,-23 23,-23 z m 0,9 c -7.726063,0 -14.0000052,6.274 -14,14 -5.2e-6,7.7261 6.273937,14 14,14 7.726063,0 14.000005,-6.2739 14,-14 5e-6,-7.726 -6.273937,-14 -14,-14 z m -0.449219,1.0215 0,2.498 c -1.486289,0.063 -2.959658,0.442 -4.318359,1.1348 l -1.253906,-2.1738 c 1.675101,-0.8767 3.565566,-1.3905 5.572265,-1.459 z m 1,0.01 c 2.000173,0.084 3.884591,0.6056 5.550781,1.4922 l -1.255859,2.1758 c -1.348662,-0.7022 -2.813547,-1.0925 -4.294922,-1.17 z m -7.439453,1.957 1.251953,2.166 c -0.360529,0.2297 -0.714137,0.4759 -1.050781,0.7539 -0.848542,0.7008 -1.553304,1.5164 -2.125,2.4024 l -2.167969,-1.25 c 1.042116,-1.6458 2.440517,-3.0381 4.091797,-4.0723 z m 13.84961,0.045 c 1.633634,1.0381 3.015274,2.4288 4.044921,4.0684 l -2.166015,1.2519 c -0.55939,-0.8759 -1.248506,-1.6846 -2.078125,-2.3828 -0.337063,-0.2837 -0.690976,-0.5348 -1.052735,-0.7695 z m -6.916016,1.4668 0,0 c 2.159984,0.01 4.315997,0.7562 6.072266,2.2344 3.512526,2.956 4.408804,7.9915 2.132812,11.9785 -0.119098,0.2105 -0.07059,0.476 0.115234,0.6309 l 0.002,0 c 0.03828,0.046 0.08459,0.085 0.136718,0.1152 l 2.5,1.4433 c -2.29884,3.6591 -6.358909,6.0977 -11.003906,6.0977 -4.627701,0 -8.675142,-2.4203 -10.978516,-6.0566 l 2.574219,-1.4864 c 0.269189,-0.1521 0.337159,-0.5097 0.142578,-0.75 -0.0085,-0.025 -0.01895,-0.049 -0.03125,-0.072 -2.23916,-4.0078 -1.295508,-9.0355 2.244141,-11.959 1.769812,-1.4618 3.933766,-2.1879 6.09375,-2.1778 z m -0.544922,2.5039 0,7.0918 c -0.579028,0.2085 -1,0.7614 -1,1.4082 0,0.6468 0.420972,1.1978 1,1.4063 l 0,1.0937 1,0 0,-1.0937 c 0.579028,-0.2085 1,-0.7595 1,-1.4063 0,-0.6468 -0.420972,-1.1997 -1,-1.4082 l 0,-7.0918 z m -10.988281,0.916 2.173828,1.2559 c -0.696728,1.3471 -1.091534,2.8235 -1.164063,4.3281 l -2.496093,0 c 0.07653,-2.012 0.597865,-3.9081 1.486328,-5.584 z m 22.998047,0.045 c 0.874522,1.6651 1.388984,3.5447 1.464843,5.5391 l -2.496093,0 c -0.07184,-1.4877 -0.457374,-2.9492 -1.140625,-4.2852 z m -24.484375,6.5391 2.49414,0 c 0.06939,1.4768 0.452723,2.952 1.166016,4.3281 l -2.173828,1.2559 c -0.888513,-1.676 -1.409797,-3.5719 -1.486328,-5.584 z m 23.453125,0 2.496093,0 c -0.07587,1.9948 -0.591968,3.8738 -1.466797,5.5391 l -2.171874,-1.2539 c 0.698813,-1.3632 1.074086,-2.8227 1.142578,-4.2852 z M 23,1030.3622 c 0.282065,0 0.5,0.218 0.5,0.5 0,0.2821 -0.217935,0.5 -0.5,0.5 -0.282065,0 -0.5,-0.2179 -0.5,-0.5 0,-0.282 0.217935,-0.5 0.5,-0.5 z m -5.5,6 c -0.276131,0 -0.499972,0.2239 -0.5,0.5 l 0,2 c 2.8e-5,0.2761 0.223869,0.5 0.5,0.5 l 11,0 c 0.276131,0 0.499972,-0.2239 0.5,-0.5 l 0,-2 c -2.8e-5,-0.2761 -0.223869,-0.5 -0.5,-0.5 z m 0.5,1 10,0 0,1 -10,0 z" color="#000" font-family="sans-serif" font-weight="400" overflow="visible" transform="translate(0 -1006.362)" fill="#2d6cdf" class="color000 svgShape"></path></svg></g></svg>