<svg xmlns="http://www.w3.org/2000/svg" viewBox="0 0 79.43 71.58"><g data-name="Layer 2"><path fill="#b76a8a" d="M68.5 25.58h-57v41a5 5 0 0 0 5 5h52a5 5 0 0 0 5-5v-36a5 5 0 0 0-5-5z" opacity=".15"/><rect width="62" height="46" x="2.5" y="16.58" fill="none" stroke="#6a80b9" stroke-miterlimit="10" stroke-width="5" rx="2" ry="2"/><path fill="none" stroke="#6a80b9" stroke-miterlimit="10" stroke-width="2" d="M2.5 50.67l21.81-21.81L47.65 52.2l8.41-8.4 6.79 6.79"/><path fill="none" stroke="#6a80b9" stroke-miterlimit="10" stroke-width="3" d="M14.42 16.58L17 3.12a2 2 0 0 1 2.34-1.59l57 10.9a2 2 0 0 1 1.59 2.34L70 56a2 2 0 0 1-2.34 1.59L64.5 57"/></g></svg>