<svg id="SvgjsSvg1011" width="288" height="288" xmlns="http://www.w3.org/2000/svg" version="1.1" xmlns:xlink="http://www.w3.org/1999/xlink" xmlns:svgjs="http://svgjs.com/svgjs"><defs id="SvgjsDefs1012"></defs><g id="SvgjsG1013" transform="matrix(1,0,0,1,0,0)"><svg xmlns="http://www.w3.org/2000/svg" enable-background="new 0 0 146.081 196.333" viewBox="0 0 146.081 196.333" width="288" height="288"><path d="M5.096 111.285c.954.373 1.938.549 2.904.549 3.201 0 6.223-1.935 7.457-5.096 7.778-19.881 18.037-30.417 26.116-36.217 1.564-1.117 3.048-2.05 4.422-2.834v20.786l45.73-40.441H53.724c-.31 0-.613.023-.914.059-.276.021-.555.056-.833.107-.856.158-9.221 1.823-19.704 9.304C21.79 64.959 9.345 78.306.549 100.925-1.057 105.042.98 109.681 5.096 111.285zM46.403 101.464c7.654-1.849 16.522-3.05 26.638-3.049 10.297-.002 19.297 1.247 27.046 3.153V67.692c1.821 1.038 3.832 2.335 5.964 3.972 7.805 6.016 17.285 16.433 24.574 35.075 1.232 3.161 4.256 5.095 7.456 5.096.967 0 1.949-.176 2.904-.549 4.116-1.605 6.152-6.243 4.547-10.36-8.795-22.619-21.241-35.965-31.725-43.423-3.955-2.823-7.607-4.816-10.669-6.214L46.403 101.464z" fill="#ff8066" class="color000 svgShape"></path><circle cx="73.042" cy="22.5" r="22.5" fill="#ff8066" class="color000 svgShape"></circle><path d="M102.647 45.047c.989 1.117 2.365 1.688 3.747 1.688 1.177 0 2.359-.414 3.312-1.256l.003-.002 18.542-16.399c2.069-1.831 2.263-4.991.434-7.058-1.829-2.069-4.989-2.263-7.058-.434l-18.545 16.403c-.002.001-.003.003-.004.005C101.012 39.826 100.82 42.98 102.647 45.047zM102.481 102.18l-1.942 7.124-.453 1.663v-.002l-.235.862c-7.427-2.023-16.326-3.412-26.811-3.412-10.487 0-19.383 1.389-26.812 3.412l-.234-.861v.001l-.481-1.767-1.576-5.788c1.25-1.845 1.163-4.361-.381-6.106-1.831-2.068-4.99-2.263-7.059-.432l-.01.009-20.766 18.365c-4.29 3.148-6.464 5.534-6.654 5.746l.078.07-2.852 2.522c-2.07 1.831-2.264 4.99-.434 7.058.988 1.118 2.365 1.688 3.749 1.688 1.177.001 2.358-.413 3.309-1.254l9.067-8.02c4.148-2.997 10.703-6.883 19.83-9.898-6.022 3.632-11.457 9.774-14.994 18.018-4.231 9.711-6.487 22.272-6.507 39.366 0 4.384.155 9.071.477 14.09.424 6.616 5.925 11.699 12.464 11.699.27 0 .54-.009.812-.026 6.889-.443 12.115-6.387 11.673-13.276-.292-4.533-.428-8.689-.428-12.486-.05-19.845 3.813-29.608 6.624-33.29 1.42-1.902 2.473-2.556 3.416-3.012.941-.428 1.938-.603 3.03-.607 1.015-.004 2.053.181 2.717.358.333.088.571.168.665.201.003.001.006.002.009.003 3.431 1.437 7.148 1.218 10.266-.289 3.114 1.505 6.826 1.726 10.253.295l.008-.001c.233-.101 1.844-.586 3.396-.567 1.092.004 2.089.181 3.03.609 1.34.694 3.258 1.776 5.637 6.982 2.298 5.164 4.42 14.484 4.4 29.32 0 3.797-.133 7.953-.424 12.491-.439 6.889 4.788 12.831 11.677 13.27.272.018.543.026.812.026 6.54 0 12.039-5.084 12.461-11.703.32-5.017.473-9.702.473-14.084-.05-22.73-3.97-37.669-11.442-48.049-3.466-4.773-7.792-8.305-12.235-10.514v-.087c10.264 2.826 17.712 6.863 22.566 10.152 2.444 1.658 4.229 3.125 5.374 4.148.573.511.985.91 1.242 1.167.126.128.215.221.265.274.026.026.04.041.045.047l1.153-1.06-1.167 1.044 7.447-6.673c-.434-.489-11.388-12.509-34.532-18.817l0 0 .002.001V102.18z" fill="#ff8066" class="color000 svgShape"></path></svg></g></svg>