<svg xmlns="http://www.w3.org/2000/svg" width="110" height="110" version="1.0" viewBox="0 0 110 110"><circle cx="55" cy="55" r="55" fill="#32BEA6"/><path fill="#3E3E3F" d="M34 63c10 0 12 9 29 9 0-5 4-9 11-9s13 9 13 9c0-9.122-3-27-21.544-27H53.708a4 4 0 0 0-3.714 2.514L47 55H31c-3.86 0-5 4-7 17 .91-.258 8.901-9 10-9z"/><path fill="#5B5C5F" d="M34 63c10 0 12 9 29 9 0-5 4-9 11-9 .245 0 .486.035.728.057C70.956 61.038 59.779 59 30 59a28.84 28.84 0 0 0-3.395.189c-.76 2.188-1.405 5.365-2.129 9.808C26.021 65.998 29.002 63 34 63z"/><path fill="#FFF" d="M23.224 72.677A2.002 2.002 0 0 0 25.2 75H84a3 3 0 0 0 3-3s-6-9-13-9-11 4-11 9c-17 0-19-9-29-9-7.181 0-10.205 6.188-10.776 9.677z"/><circle cx="34" cy="73" r="6" fill="#3E3E3F"/><circle cx="34" cy="73" r="2" fill="#CFD3D4"/><circle cx="73" cy="73" r="6" fill="#3E3E3F"/><circle cx="73" cy="73" r="2" fill="#CFD3D4"/><path fill="#40C9E7" d="M67 48.083A16.715 16.715 0 0065.398 48H53.754a1 1 0 00-.961.725l-1.429 5A1 1 0 0052.326 55H67v-6.917zM77.626 53.318A16.711 16.711 0 0071 48.986V55h5.894a1 1 0 00.732-1.682z"/><path fill="#3E3E3F" d="M26.198 57h-2v6h2a3 3 0 1 0 0-6z"/><path fill="#5B5C5F" d="M23.198 57h1v6h-1z"/><path fill="#6FDAF1" d="M53.754 48a1 1 0 0 0-.962.725l-1.428 5A1 1 0 0 0 52.326 55h2.073l7-7h-7.645z"/></svg>